<svg width="96" height="96" viewBox="0 0 96 96" fill="none" xmlns="http://www.w3.org/2000/svg">
<path d="M0 48C0 21.4903 21.4903 0 48 0C74.5097 0 96 21.4903 96 48C96 74.5097 74.5097 96 48 96C21.4903 96 0 74.5097 0 48Z" fill="white"/>
<rect width="96" height="96" fill="white"/>
<path fill-rule="evenodd" clip-rule="evenodd" d="M0 48C0 21.4903 21.492 0 48 0C74.5097 0 96 21.492 96 48C96 74.5097 74.508 96 48 96C21.4903 96 0 74.508 0 48ZM5.33333 48C5.33333 24.4359 24.4307 5.33333 48 5.33333C71.5642 5.33333 90.6667 24.4307 90.6667 48C90.6667 71.5642 71.5693 90.6667 48 90.6667C24.4359 90.6667 5.33333 71.5693 5.33333 48Z" fill="#232323"/>
<path fill-rule="evenodd" clip-rule="evenodd" d="M63.8067 62.6465V32.1934H56.7815V44.4157H39.2185V32.1934H32.1934V58.0625C34.3568 57.9954 36.6939 58.0515 39.2185 58.2631L39.2185 51.3998H56.7815V61.5417C59.2681 62.0648 61.6073 62.4254 63.8067 62.6465Z" fill="#232323"/>
<path fill-rule="evenodd" clip-rule="evenodd" d="M16.5317 65.2975C23.4718 62.1854 34.842 59.6257 53.5164 64.4898C64.9439 67.4663 73.4795 67.0801 79.7583 65.2975C79.7583 65.6291 70.7823 84.3988 48.3098 84.3988C25.8374 84.3988 16.5317 65.2275 16.5317 65.2975Z" fill="#31AAB7"/>
</svg>
